AmstelvarA2-Roman_YTUC541.ufo
<glyph name="B" format="2">
  <advance width="1259"/>
  <unicode hex="0042"/>
  <anchor x="630" y="0" name="bottom"/>
  <anchor x="630" y="1082" name="top"/>
  <outline>
    <contour>
      <point x="82" y="0" type="line"/>
      <point x="82" y="100" type="line"/>
      <point x="290" y="136" type="line"/>
      <point x="292" y="566" type="line"/>
      <point x="290" y="934" type="line"/>
      <point x="82" y="968" type="line"/>
      <point x="82" y="1082" type="line"/>
      <point x="685" y="1082" type="line" smooth="yes"/>
      <point x="897" y="1082"/>
      <point x="1101" y="949"/>
      <point x="1101" y="845" type="qcurve" smooth="yes"/>
      <point x="1101" y="749"/>
      <point x="984" y="618"/>
      <point x="862" y="601" type="qcurve"/>
      <point x="862" y="591" type="line"/>
      <point x="1009" y="570"/>
      <point x="1193" y="435"/>
      <point x="1193" y="313" type="qcurve" smooth="yes"/>
      <point x="1193" y="177"/>
      <point x="932" y="0"/>
      <point x="701" y="0" type="qcurve" smooth="yes"/>
    </contour>
    <contour>
      <point x="470" y="135" type="line"/>
      <point x="503" y="115" type="line"/>
      <point x="645" y="115" type="line" smooth="yes"/>
      <point x="831" y="115"/>
      <point x="1007" y="212"/>
      <point x="1007" y="318" type="qcurve" smooth="yes"/>
      <point x="1007" y="413"/>
      <point x="854" y="515"/>
      <point x="711" y="515" type="qcurve" smooth="yes"/>
      <point x="479" y="515" type="line"/>
      <point x="470" y="501" type="line"/>
    </contour>
    <contour>
      <point x="469" y="643" type="line"/>
      <point x="478" y="629" type="line"/>
      <point x="634" y="629" type="line" smooth="yes"/>
      <point x="776" y="629"/>
      <point x="921" y="722"/>
      <point x="921" y="814" type="qcurve" smooth="yes"/>
      <point x="921" y="887"/>
      <point x="780" y="952"/>
      <point x="644" y="952" type="qcurve" smooth="yes"/>
      <point x="501" y="952" type="line"/>
      <point x="472" y="934" type="line"/>
    </contour>
  </outline>
</glyph>
<glyph name="D" format="2">
  <advance width="1590"/>
  <unicode hex="0044"/>
  <anchor x="686.0" y="0" name="bottom"/>
  <anchor x="439.0" y="544.0" name="center"/>
  <anchor x="686.0" y="1082" name="top"/>
  <outline>
    <contour>
      <point x="82" y="0" type="line"/>
      <point x="82" y="100" type="line"/>
      <point x="290" y="135" type="line"/>
      <point x="292" y="543" type="line"/>
      <point x="290" y="934" type="line"/>
      <point x="82" y="968" type="line"/>
      <point x="82" y="1082" type="line"/>
      <point x="718" y="1082" type="line" smooth="yes"/>
      <point x="1074" y="1082"/>
      <point x="1510" y="807"/>
      <point x="1510" y="561" type="qcurve" smooth="yes"/>
      <point x="1510" y="296"/>
      <point x="1075" y="0"/>
      <point x="678" y="0" type="qcurve" smooth="yes"/>
    </contour>
    <contour>
      <point x="470" y="130" type="line"/>
      <point x="506" y="124"/>
      <point x="652" y="115"/>
      <point x="727" y="115" type="qcurve" smooth="yes"/>
      <point x="987" y="115"/>
      <point x="1317" y="333"/>
      <point x="1319" y="549" type="qcurve" smooth="yes"/>
      <point x="1321" y="746"/>
      <point x="976" y="957"/>
      <point x="690" y="957" type="qcurve" smooth="yes"/>
      <point x="640" y="957"/>
      <point x="506" y="945"/>
      <point x="470" y="940" type="qcurve"/>
      <point x="468" y="543" type="line"/>
    </contour>
  </outline>
</glyph>
<glyph name="G" format="2">
  <advance width="1566"/>
  <unicode hex="0047"/>
  <anchor x="872.0" y="0" name="bottom"/>
  <anchor x="836.0" y="1082" name="top"/>
  <outline>
    <contour>
      <point x="80" y="532" type="qcurve" smooth="yes"/>
      <point x="80" y="770"/>
      <point x="495" y="1103"/>
      <point x="810" y="1102" type="qcurve" smooth="yes"/>
      <point x="955" y="1102"/>
      <point x="1154" y="1045"/>
      <point x="1206" y="1009" type="qcurve"/>
      <point x="1237" y="1082" type="line"/>
      <point x="1341" y="1082" type="line"/>
      <point x="1341" y="623" type="line"/>
      <point x="1227" y="623" type="line"/>
      <point x="1189" y="775" type="line" smooth="yes"/>
      <point x="1164" y="874"/>
      <point x="990" y="966"/>
      <point x="822" y="966" type="qcurve" smooth="yes"/>
      <point x="581" y="966"/>
      <point x="269" y="745"/>
      <point x="271" y="523" type="qcurve" smooth="yes"/>
      <point x="273" y="351"/>
      <point x="600" y="95"/>
      <point x="887" y="95" type="qcurve" smooth="yes"/>
      <point x="1003" y="95"/>
      <point x="1197" y="145"/>
      <point x="1268" y="190" type="qcurve"/>
      <point x="1268" y="333" type="line"/>
      <point x="1069" y="368" type="line"/>
      <point x="1069" y="468" type="line"/>
      <point x="1570" y="468" type="line"/>
      <point x="1570" y="368" type="line"/>
      <point x="1439" y="333" type="line"/>
      <point x="1439" y="151" type="line"/>
      <point x="1363" y="81"/>
      <point x="1066" y="-30"/>
      <point x="859" y="-30" type="qcurve" smooth="yes"/>
      <point x="522" y="-30"/>
      <point x="80" y="278"/>
    </contour>
  </outline>
</glyph>
<glyph name="M" format="2">
  <advance width="2116"/>
  <unicode hex="004D"/>
  <anchor x="1025.0" y="0" name="bottom"/>
  <anchor x="1058.0" y="1082" name="top"/>
  <outline>
    <contour>
      <point x="82" y="0" type="line"/>
      <point x="82" y="100" type="line"/>
      <point x="290" y="135" type="line"/>
      <point x="292" y="554" type="line"/>
      <point x="290" y="934" type="line"/>
      <point x="82" y="968" type="line"/>
      <point x="82" y="1082" type="line"/>
      <point x="534" y="1082" type="line"/>
      <point x="801" y="630" type="line"/>
      <point x="1001" y="300" type="line"/>
      <point x="1046" y="218" type="line"/>
      <point x="1056" y="218" type="line"/>
      <point x="1101" y="300" type="line"/>
      <point x="1288" y="603" type="line"/>
      <point x="1570" y="1082" type="line"/>
      <point x="2034" y="1082" type="line"/>
      <point x="2034" y="968" type="line"/>
      <point x="1826" y="934" type="line"/>
      <point x="1824" y="554" type="line"/>
      <point x="1826" y="135" type="line"/>
      <point x="2034" y="100" type="line"/>
      <point x="2034" y="0" type="line"/>
      <point x="1408" y="0" type="line"/>
      <point x="1408" y="100" type="line"/>
      <point x="1646" y="135" type="line"/>
      <point x="1648" y="554" type="line"/>
      <point x="1646" y="824" type="line"/>
      <point x="1651" y="911" type="line"/>
      <point x="1641" y="914" type="line"/>
      <point x="1599" y="835" type="line"/>
      <point x="1411" y="531" type="line"/>
      <point x="1087" y="-8" type="line"/>
      <point x="965" y="-8" type="line"/>
      <point x="666" y="500" type="line"/>
      <point x="458" y="842" type="line"/>
      <point x="418" y="918" type="line"/>
      <point x="408" y="915" type="line"/>
      <point x="413" y="829" type="line"/>
      <point x="411" y="554" type="line"/>
      <point x="413" y="135" type="line"/>
      <point x="631" y="100" type="line"/>
      <point x="631" y="0" type="line"/>
    </contour>
  </outline>
</glyph>
<glyph name="R" format="2">
  <advance width="1350"/>
  <unicode hex="0052"/>
  <anchor x="803.0" y="0" name="bottom"/>
  <anchor x="630.0" y="1082" name="top"/>
  <outline>
    <contour>
      <point x="82" y="0" type="line"/>
      <point x="82" y="100" type="line"/>
      <point x="290" y="136" type="line"/>
      <point x="292" y="557" type="line"/>
      <point x="290" y="934" type="line"/>
      <point x="82" y="968" type="line"/>
      <point x="82" y="1082" type="line"/>
      <point x="725" y="1082" type="line" smooth="yes"/>
      <point x="937" y="1082"/>
      <point x="1141" y="928"/>
      <point x="1141" y="808" type="qcurve" smooth="yes"/>
      <point x="1141" y="665"/>
      <point x="881" y="500"/>
      <point x="723" y="500" type="qcurve" smooth="yes"/>
      <point x="655" y="500"/>
      <point x="437" y="509"/>
      <point x="380" y="514" type="qcurve"/>
      <point x="380" y="609" type="line"/>
      <point x="646" y="609" type="line" smooth="yes"/>
      <point x="802" y="609"/>
      <point x="944" y="725"/>
      <point x="944" y="820" type="qcurve" smooth="yes"/>
      <point x="944" y="903"/>
      <point x="821" y="963"/>
      <point x="684" y="964" type="qcurve" smooth="yes"/>
      <point x="501" y="964" type="line"/>
      <point x="472" y="946" type="line"/>
      <point x="468" y="557" type="line"/>
      <point x="470" y="136" type="line"/>
      <point x="686" y="100" type="line"/>
      <point x="686" y="0" type="line"/>
    </contour>
    <contour>
      <point x="621" y="528" type="line"/>
      <point x="831" y="557" type="line"/>
      <point x="1129" y="255" type="line" smooth="yes"/>
      <point x="1226" y="157"/>
      <point x="1349" y="101"/>
      <point x="1406" y="100" type="qcurve"/>
      <point x="1406" y="0" type="line"/>
      <point x="1151" y="0" type="line"/>
      <point x="1122" y="20" type="line"/>
    </contour>
  </outline>
</glyph>
<glyph name="S" format="2">
  <advance width="1088"/>
  <unicode hex="0053"/>
  <anchor x="599.0" y="0" name="bottom"/>
  <anchor x="514.0" y="1082" name="top"/>
  <outline>
    <contour>
      <point x="62" y="0" type="line"/>
      <point x="62" y="484" type="line"/>
      <point x="178" y="484" type="line"/>
      <point x="198" y="379" type="line" smooth="yes"/>
      <point x="226" y="234"/>
      <point x="440" y="102"/>
      <point x="583" y="102" type="qcurve" smooth="yes"/>
      <point x="737" y="102"/>
      <point x="886" y="180"/>
      <point x="886" y="272" type="qcurve" smooth="yes"/>
      <point x="886" y="351"/>
      <point x="694" y="463"/>
      <point x="492" y="495" type="qcurve" smooth="yes"/>
      <point x="313" y="523"/>
      <point x="110" y="681"/>
      <point x="110" y="803" type="qcurve" smooth="yes"/>
      <point x="110" y="937"/>
      <point x="332" y="1102"/>
      <point x="513" y="1102" type="qcurve" smooth="yes"/>
      <point x="604" y="1102"/>
      <point x="765" y="1042"/>
      <point x="816" y="1003" type="qcurve"/>
      <point x="837" y="1069" type="line"/>
      <point x="941" y="1069" type="line"/>
      <point x="941" y="633" type="line"/>
      <point x="827" y="633" type="line"/>
      <point x="803" y="785" type="line" smooth="yes"/>
      <point x="789" y="871"/>
      <point x="634" y="968"/>
      <point x="516" y="968" type="qcurve" smooth="yes"/>
      <point x="415" y="968"/>
      <point x="270" y="911"/>
      <point x="270" y="831" type="qcurve" smooth="yes"/>
      <point x="270" y="771"/>
      <point x="415" y="682"/>
      <point x="615" y="647" type="qcurve" smooth="yes"/>
      <point x="806" y="614"/>
      <point x="1049" y="457"/>
      <point x="1049" y="300" type="qcurve" smooth="yes"/>
      <point x="1049" y="152"/>
      <point x="803" y="-20"/>
      <point x="597" y="-20" type="qcurve" smooth="yes"/>
      <point x="468" y="-20"/>
      <point x="272" y="54"/>
      <point x="213" y="113" type="qcurve"/>
      <point x="166" y="0" type="line"/>
    </contour>
  </outline>
</glyph>
<glyph name="U" format="2">
  <advance width="1604"/>
  <unicode hex="0055"/>
  <anchor x="832.0" y="0" name="bottom"/>
  <anchor x="1042.0" y="0" name="ogonek"/>
  <anchor x="832.0" y="1082" name="top"/>
  <anchor x="1590.0" y="1082" name="topright"/>
  <outline>
    <contour>
      <point x="64" y="968" type="line"/>
      <point x="64" y="1082" type="line"/>
      <point x="650" y="1082" type="line"/>
      <point x="650" y="968" type="line"/>
      <point x="443" y="934" type="line"/>
      <point x="438" y="674" type="line"/>
      <point x="442" y="474" type="line" smooth="yes"/>
      <point x="446" y="282"/>
      <point x="669" y="114"/>
      <point x="848" y="114" type="qcurve" smooth="yes"/>
      <point x="1009" y="114"/>
      <point x="1241" y="297"/>
      <point x="1242" y="494" type="qcurve" smooth="yes"/>
      <point x="1244" y="674" type="line"/>
      <point x="1242" y="934" type="line"/>
      <point x="1024" y="968" type="line"/>
      <point x="1024" y="1082" type="line"/>
      <point x="1590" y="1082" type="line"/>
      <point x="1590" y="968" type="line"/>
      <point x="1382" y="934" type="line"/>
      <point x="1380" y="674" type="line"/>
      <point x="1383" y="493" type="line" smooth="yes"/>
      <point x="1387" y="233"/>
      <point x="1072" y="-31"/>
      <point x="833" y="-31" type="qcurve" smooth="yes"/>
      <point x="576" y="-31"/>
      <point x="260" y="242"/>
      <point x="262" y="481" type="qcurve" smooth="yes"/>
      <point x="264" y="674" type="line"/>
      <point x="262" y="934" type="line"/>
    </contour>
  </outline>
</glyph>
<glyph name="X" format="2">
  <advance width="1346"/>
  <unicode hex="0058"/>
  <anchor x="661.0" y="0" name="bottom"/>
  <anchor x="673.0" y="1082" name="top"/>
  <anchor x="1386" y="100" name="cy_descender"/>
  <anchor x="663" y="571" name="center"/>
  <outline>
    <contour>
      <point x="-20" y="0" type="line"/>
      <point x="-20" y="100" type="line"/>
      <point x="148" y="135" type="line"/>
      <point x="573" y="559" type="line"/>
      <point x="188" y="937" type="line"/>
      <point x="30" y="968" type="line"/>
      <point x="30" y="1082" type="line"/>
      <point x="564" y="1082" type="line"/>
      <point x="564" y="968" type="line"/>
      <point x="401" y="935" type="line"/>
      <point x="587" y="753" type="line"/>
      <point x="677" y="660" type="line"/>
      <point x="687" y="660" type="line"/>
      <point x="775" y="755" type="line"/>
      <point x="957" y="942" type="line"/>
      <point x="780" y="968" type="line"/>
      <point x="780" y="1082" type="line"/>
      <point x="1286" y="1082" type="line"/>
      <point x="1286" y="968" type="line"/>
      <point x="1108" y="937" type="line"/>
      <point x="757" y="587" type="line"/>
      <point x="1218" y="135" type="line"/>
      <point x="1386" y="101" type="line"/>
      <point x="1386" y="0" type="line"/>
      <point x="842" y="0" type="line"/>
      <point x="842" y="100" type="line"/>
      <point x="1005" y="135" type="line"/>
      <point x="740" y="395" type="line"/>
      <point x="653" y="486" type="line"/>
      <point x="643" y="486" type="line"/>
      <point x="557" y="394" type="line"/>
      <point x="299" y="130" type="line"/>
      <point x="476" y="100" type="line"/>
      <point x="476" y="0" type="line"/>
    </contour>
  </outline>
</glyph>
<glyph name="Y" format="2">
  <advance width="1266"/>
  <unicode hex="0059"/>
  <anchor x="636.0" y="0" name="bottom"/>
  <anchor x="640.0" y="1082" name="top"/>
  <anchor x="-100.0" y="1082" name="tonos"/>
  <anchor x="636" y="400" name="center"/>
  <outline>
    <contour>
      <point x="324" y="0" type="line"/>
      <point x="324" y="100" type="line"/>
      <point x="545" y="135" type="line"/>
      <point x="547" y="466" type="line"/>
      <point x="351" y="693" type="line"/>
      <point x="132" y="942" type="line"/>
      <point x="-30" y="968" type="line"/>
      <point x="-30" y="1082" type="line"/>
      <point x="497" y="1082" type="line"/>
      <point x="497" y="968" type="line"/>
      <point x="340" y="933" type="line"/>
      <point x="496" y="760" type="line"/>
      <point x="658" y="576" type="line"/>
      <point x="668" y="576" type="line"/>
      <point x="837" y="776" type="line"/>
      <point x="974" y="940" type="line"/>
      <point x="787" y="968" type="line"/>
      <point x="787" y="1082" type="line"/>
      <point x="1296" y="1082" type="line"/>
      <point x="1296" y="968" type="line"/>
      <point x="1128" y="941" type="line"/>
      <point x="933" y="719" type="line"/>
      <point x="723" y="470" type="line"/>
      <point x="725" y="135" type="line"/>
      <point x="943" y="100" type="line"/>
      <point x="943" y="0" type="line"/>
    </contour>
  </outline>
</glyph>
<glyph name="AE" format="2">
  <advance width="1962"/>
  <unicode hex="00C6"/>
  <anchor x="1056.0" y="1082" name="top"/>
  <outline>
    <contour>
      <point x="-41" y="0" type="line"/>
      <point x="-41" y="100" type="line"/>
      <point x="147" y="135" type="line"/>
      <point x="378" y="402" type="line"/>
      <point x="873" y="986" type="line"/>
      <point x="756" y="1000" type="line"/>
      <point x="756" y="1082" type="line"/>
      <point x="1810" y="1082" type="line"/>
      <point x="1810" y="734" type="line"/>
      <point x="1700" y="734" type="line"/>
      <point x="1665" y="964" type="line"/>
      <point x="1172" y="964" type="line"/>
      <point x="1143" y="944" type="line"/>
      <point x="1141" y="565" type="line"/>
      <point x="1143" y="132" type="line"/>
      <point x="1173" y="108" type="line"/>
      <point x="1728" y="108" type="line"/>
      <point x="1804" y="378" type="line"/>
      <point x="1914" y="378" type="line"/>
      <point x="1874" y="0" type="line"/>
      <point x="756" y="0" type="line"/>
      <point x="756" y="100" type="line"/>
      <point x="964" y="137" type="line"/>
      <point x="966" y="565" type="line"/>
      <point x="964" y="920" type="line"/>
      <point x="947" y="932" type="line"/>
      <point x="481" y="363" type="line"/>
      <point x="297" y="130" type="line"/>
      <point x="475" y="100" type="line"/>
      <point x="475" y="0" type="line"/>
    </contour>
    <contour>
      <point x="397" y="309" type="line"/>
      <point x="463" y="424" type="line"/>
      <point x="725" y="413" type="line"/>
      <point x="725" y="309" type="line"/>
    </contour>
    <contour>
      <point x="725" y="413" type="line"/>
      <point x="1069" y="425" type="line"/>
      <point x="1069" y="309" type="line"/>
      <point x="725" y="309" type="line"/>
    </contour>
    <contour>
      <point x="1055" y="520" type="line"/>
      <point x="1055" y="616" type="line"/>
      <point x="1519" y="626" type="line"/>
      <point x="1554" y="786" type="line"/>
      <point x="1664" y="786" type="line"/>
      <point x="1664" y="350" type="line"/>
      <point x="1554" y="350" type="line"/>
      <point x="1519" y="510" type="line"/>
    </contour>
  </outline>
</glyph>
<glyph name="Thorn" format="2">
  <advance width="1268"/>
  <unicode hex="00DE"/>
  <outline>
    <contour>
      <point x="82" y="0" type="line"/>
      <point x="82" y="100" type="line"/>
      <point x="290" y="137" type="line"/>
      <point x="292" y="543" type="line"/>
      <point x="290" y="934" type="line"/>
      <point x="82" y="968" type="line"/>
      <point x="82" y="1082" type="line"/>
      <point x="698" y="1082" type="line"/>
      <point x="698" y="982" type="line"/>
      <point x="471" y="942" type="line"/>
      <point x="469" y="908" type="line"/>
      <point x="729" y="908" type="line" smooth="yes"/>
      <point x="968" y="908"/>
      <point x="1218" y="752"/>
      <point x="1218" y="600" type="qcurve" smooth="yes"/>
      <point x="1218" y="451"/>
      <point x="953" y="259"/>
      <point x="713" y="259" type="qcurve" smooth="yes"/>
      <point x="604" y="259"/>
      <point x="435" y="280"/>
      <point x="388" y="288" type="qcurve"/>
      <point x="397" y="386" type="line"/>
      <point x="456" y="378"/>
      <point x="571" y="372"/>
      <point x="673" y="372" type="qcurve" smooth="yes"/>
      <point x="844" y="372"/>
      <point x="1023" y="491"/>
      <point x="1023" y="597" type="qcurve" smooth="yes"/>
      <point x="1023" y="694"/>
      <point x="853" y="790"/>
      <point x="693" y="790" type="qcurve" smooth="yes"/>
      <point x="470" y="790" type="line"/>
      <point x="468" y="551" type="line"/>
      <point x="470" y="132" type="line"/>
      <point x="698" y="100" type="line"/>
      <point x="698" y="0" type="line"/>
    </contour>
  </outline>
</glyph>
<glyph name="OE" format="2">
  <advance width="2058"/>
  <unicode hex="0152"/>
  <outline>
    <contour>
      <point x="80" y="529" type="qcurve" smooth="yes"/>
      <point x="80" y="771"/>
      <point x="475" y="1100"/>
      <point x="812" y="1100" type="qcurve" smooth="yes"/>
      <point x="873" y="1100"/>
      <point x="1150" y="1082"/>
      <point x="1210" y="1082" type="qcurve" smooth="yes"/>
      <point x="1906" y="1082" type="line"/>
      <point x="1906" y="734" type="line"/>
      <point x="1796" y="734" type="line"/>
      <point x="1761" y="964" type="line"/>
      <point x="1298" y="964" type="line"/>
      <point x="1269" y="944" type="line"/>
      <point x="1267" y="562" type="line"/>
      <point x="1269" y="133" type="line"/>
      <point x="1299" y="109" type="line"/>
      <point x="1824" y="109" type="line"/>
      <point x="1900" y="379" type="line"/>
      <point x="2010" y="379" type="line"/>
      <point x="1970" y="1" type="line"/>
      <point x="1270" y="1" type="line" smooth="yes"/>
      <point x="1207" y="1"/>
      <point x="901" y="-25"/>
      <point x="816" y="-25" type="qcurve" smooth="yes"/>
      <point x="487" y="-25"/>
      <point x="80" y="281"/>
    </contour>
    <contour>
      <point x="271" y="553" type="qcurve" smooth="yes"/>
      <point x="271" y="341"/>
      <point x="564" y="101"/>
      <point x="814" y="101" type="qcurve" smooth="yes"/>
      <point x="892" y="101"/>
      <point x="1032" y="112"/>
      <point x="1090" y="123" type="qcurve"/>
      <point x="1092" y="562" type="line"/>
      <point x="1090" y="950" type="line"/>
      <point x="1052" y="954"/>
      <point x="889" y="970"/>
      <point x="814" y="970" type="qcurve" smooth="yes"/>
      <point x="541" y="970"/>
      <point x="271" y="744"/>
    </contour>
    <contour>
      <point x="1181" y="517" type="line"/>
      <point x="1181" y="613" type="line"/>
      <point x="1615" y="623" type="line"/>
      <point x="1650" y="783" type="line"/>
      <point x="1760" y="783" type="line"/>
      <point x="1760" y="347" type="line"/>
      <point x="1650" y="347" type="line"/>
      <point x="1615" y="507" type="line"/>
    </contour>
  </outline>
</glyph>
<glyph name="Schwa" format="2">
  <advance width="1446"/>
  <unicode hex="018F"/>
  <outline>
    <contour>
      <point x="64" y="868" type="line"/>
      <point x="162" y="983"/>
      <point x="452" y="1102"/>
      <point x="669" y="1102" type="qcurve" smooth="yes"/>
      <point x="1002" y="1102"/>
      <point x="1366" y="792"/>
      <point x="1366" y="569" type="qcurve" smooth="yes"/>
      <point x="1366" y="317"/>
      <point x="982" y="-30"/>
      <point x="692" y="-30" type="qcurve" smooth="yes"/>
      <point x="416" y="-30"/>
      <point x="102" y="212"/>
      <point x="102" y="442" type="qcurve" smooth="yes"/>
      <point x="102" y="527" type="line"/>
      <point x="1228" y="527" type="line"/>
      <point x="1228" y="397" type="line"/>
      <point x="665" y="403" type="line"/>
      <point x="298" y="398" type="line"/>
      <point x="298" y="369" type="line" smooth="yes"/>
      <point x="298" y="246"/>
      <point x="503" y="97"/>
      <point x="702" y="97" type="qcurve" smooth="yes"/>
      <point x="919" y="97"/>
      <point x="1177" y="345"/>
      <point x="1175" y="539" type="qcurve" smooth="yes"/>
      <point x="1173" y="738"/>
      <point x="860" y="958"/>
      <point x="651" y="958" type="qcurve" smooth="yes"/>
      <point x="474" y="958"/>
      <point x="231" y="858"/>
      <point x="169" y="781" type="qcurve"/>
    </contour>
  </outline>
</glyph>
<glyph name="Gamma" format="2">
  <advance width="1136"/>
  <unicode hex="0393"/>
  <anchor x="654.0" y="1082" name="top"/>
  <anchor x="381" y="542" name="center"/>
  <outline>
    <contour>
      <point x="82" y="0" type="line"/>
      <point x="82" y="100" type="line"/>
      <point x="290" y="137" type="line"/>
      <point x="292" y="552" type="line"/>
      <point x="290" y="934" type="line"/>
      <point x="82" y="968" type="line"/>
      <point x="82" y="1082" type="line"/>
      <point x="1086" y="1082" type="line"/>
      <point x="1086" y="633" type="line"/>
      <point x="976" y="633" type="line"/>
      <point x="941" y="964" type="line"/>
      <point x="500" y="964" type="line"/>
      <point x="470" y="944" type="line"/>
      <point x="468" y="552" type="line"/>
      <point x="470" y="132" type="line"/>
      <point x="698" y="100" type="line"/>
      <point x="698" y="0" type="line"/>
    </contour>
  </outline>
</glyph>
<glyph name="Theta" format="2">
  <advance width="1664"/>
  <unicode hex="0398"/>
  <outline>
    <contour>
      <point x="836" y="-31" type="qcurve" smooth="yes"/>
      <point x="507" y="-31"/>
      <point x="80" y="280"/>
      <point x="80" y="543" type="qcurve"/>
      <point x="80" y="770"/>
      <point x="495" y="1102"/>
      <point x="832" y="1102" type="qcurve" smooth="yes"/>
      <point x="1169" y="1102"/>
      <point x="1584" y="794"/>
      <point x="1584" y="543" type="qcurve"/>
      <point x="1584" y="302"/>
      <point x="1173" y="-31"/>
    </contour>
    <contour>
      <point x="834" y="101" type="qcurve" smooth="yes"/>
      <point x="1107" y="101"/>
      <point x="1393" y="328"/>
      <point x="1393" y="543" type="qcurve"/>
      <point x="1393" y="720"/>
      <point x="1087" y="962"/>
      <point x="834" y="962" type="qcurve" smooth="yes"/>
      <point x="561" y="962"/>
      <point x="271" y="746"/>
      <point x="271" y="543" type="qcurve"/>
      <point x="271" y="360"/>
      <point x="584" y="101"/>
    </contour>
    <contour>
      <point x="473" y="455" type="line"/>
      <point x="473" y="628" type="line"/>
      <point x="483" y="628" type="line"/>
      <point x="829" y="602" type="line"/>
      <point x="839" y="602" type="line"/>
      <point x="1183" y="628" type="line"/>
      <point x="1193" y="628" type="line"/>
      <point x="1193" y="455" type="line"/>
      <point x="1183" y="455" type="line"/>
      <point x="839" y="481" type="line"/>
      <point x="829" y="481" type="line"/>
      <point x="483" y="455" type="line"/>
    </contour>
  </outline>
</glyph>
<glyph name="Lambda" format="2">
  <advance width="1506"/>
  <unicode hex="039B"/>
  <outline>
    <contour>
      <point x="-25" y="0" type="line"/>
      <point x="-25" y="100" type="line"/>
      <point x="163" y="135" type="line"/>
      <point x="413" y="578" type="line"/>
      <point x="689" y="1090" type="line"/>
      <point x="811" y="1090" type="line"/>
      <point x="1095" y="593" type="line"/>
      <point x="1353" y="135" type="line"/>
      <point x="1531" y="100" type="line"/>
      <point x="1531" y="0" type="line"/>
      <point x="977" y="0" type="line"/>
      <point x="977" y="100" type="line"/>
      <point x="1156" y="131" type="line"/>
      <point x="942" y="528" type="line"/>
      <point x="777" y="826" type="line"/>
      <point x="736" y="908" type="line"/>
      <point x="726" y="908" type="line"/>
      <point x="686" y="826" type="line"/>
      <point x="508" y="503" type="line"/>
      <point x="314" y="130" type="line"/>
      <point x="491" y="100" type="line"/>
      <point x="491" y="0" type="line"/>
    </contour>
  </outline>
</glyph>
<glyph name="Xi" format="2">
  <advance width="1372"/>
  <unicode hex="039E"/>
  <guideline x="721" y="1008" angle="90.0" identifier="GCiNqpylsp"/>
  <outline>
    <contour>
      <point x="99" y="0" type="line"/>
      <point x="48" y="418" type="line"/>
      <point x="170" y="418" type="line"/>
      <point x="254" y="128" type="line"/>
      <point x="686" y="115" type="line"/>
      <point x="1117" y="128" type="line"/>
      <point x="1202" y="418" type="line"/>
      <point x="1324" y="418" type="line"/>
      <point x="1273" y="0" type="line"/>
    </contour>
    <contour>
      <point x="295" y="349" type="line"/>
      <point x="295" y="785" type="line"/>
      <point x="395" y="785" type="line"/>
      <point x="430" y="640" type="line"/>
      <point x="686" y="620" type="line"/>
      <point x="942" y="640" type="line"/>
      <point x="977" y="785" type="line"/>
      <point x="1077" y="785" type="line"/>
      <point x="1077" y="349" type="line"/>
      <point x="977" y="349" type="line"/>
      <point x="942" y="494" type="line"/>
      <point x="686" y="514" type="line"/>
      <point x="430" y="494" type="line"/>
      <point x="395" y="349" type="line"/>
    </contour>
    <contour>
      <point x="94" y="640" type="line"/>
      <point x="94" y="1082" type="line"/>
      <point x="1278" y="1082" type="line"/>
      <point x="1278" y="640" type="line"/>
      <point x="1156" y="640" type="line"/>
      <point x="1124" y="944" type="line"/>
      <point x="686" y="957" type="line"/>
      <point x="248" y="944" type="line"/>
      <point x="216" y="640" type="line"/>
    </contour>
  </outline>
</glyph>
<glyph name="Pi" format="2">
  <advance width="1720"/>
  <unicode hex="03A0"/>
  <outline>
    <contour>
      <point x="82" y="0" type="line"/>
      <point x="82" y="100" type="line"/>
      <point x="290" y="135" type="line"/>
      <point x="292" y="542" type="line"/>
      <point x="290" y="934" type="line"/>
      <point x="82" y="968" type="line"/>
      <point x="82" y="1082" type="line"/>
      <point x="1638" y="1082" type="line"/>
      <point x="1638" y="968" type="line"/>
      <point x="1430" y="934" type="line"/>
      <point x="1428" y="542" type="line"/>
      <point x="1430" y="135" type="line"/>
      <point x="1638" y="100" type="line"/>
      <point x="1638" y="0" type="line"/>
      <point x="1042" y="0" type="line"/>
      <point x="1042" y="100" type="line"/>
      <point x="1250" y="135" type="line"/>
      <point x="1252" y="542" type="line"/>
      <point x="1250" y="936" type="line"/>
      <point x="1210" y="964" type="line"/>
      <point x="510" y="964" type="line"/>
      <point x="470" y="936" type="line"/>
      <point x="468" y="542" type="line"/>
      <point x="470" y="135" type="line"/>
      <point x="678" y="100" type="line"/>
      <point x="678" y="0" type="line"/>
    </contour>
  </outline>
</glyph>
<glyph name="Sigma" format="2">
  <advance width="1188"/>
  <unicode hex="03A3"/>
  <outline>
    <contour>
      <point x="70" y="0" type="line"/>
      <point x="40" y="92" type="line"/>
      <point x="543" y="516" type="line"/>
      <point x="543" y="525" type="line"/>
      <point x="85" y="991" type="line"/>
      <point x="85" y="1081" type="line"/>
      <point x="1116" y="1081" type="line"/>
      <point x="1116" y="639" type="line"/>
      <point x="994" y="639" type="line"/>
      <point x="958" y="963" type="line"/>
      <point x="341" y="963" type="line"/>
      <point x="332" y="955" type="line"/>
      <point x="704" y="586" type="line"/>
      <point x="704" y="479" type="line"/>
      <point x="260" y="114" type="line"/>
      <point x="268" y="108" type="line"/>
      <point x="960" y="108" type="line"/>
      <point x="1046" y="418" type="line"/>
      <point x="1168" y="418" type="line"/>
      <point x="1117" y="0" type="line"/>
    </contour>
  </outline>
</glyph>
<glyph name="Phi" format="2">
  <advance width="1759"/>
  <unicode hex="03A6"/>
  <outline>
    <contour>
      <point x="616" y="-24" type="line"/>
      <point x="616" y="85" type="line"/>
      <point x="794" y="119" type="line"/>
      <point x="796" y="181" type="line"/>
      <point x="805" y="181" type="line"/>
      <point x="807" y="531" type="line"/>
      <point x="951" y="531" type="line"/>
      <point x="953" y="181" type="line"/>
      <point x="962" y="181" type="line"/>
      <point x="964" y="119" type="line"/>
      <point x="1142" y="85" type="line"/>
      <point x="1142" y="-24" type="line"/>
    </contour>
    <contour>
      <point x="807" y="531" type="line"/>
      <point x="805" y="891" type="line"/>
      <point x="796" y="891" type="line"/>
      <point x="794" y="949" type="line"/>
      <point x="616" y="983" type="line"/>
      <point x="616" y="1092" type="line"/>
      <point x="1142" y="1092" type="line"/>
      <point x="1142" y="983" type="line"/>
      <point x="964" y="949" type="line"/>
      <point x="962" y="891" type="line"/>
      <point x="953" y="891" type="line"/>
      <point x="951" y="531" type="line"/>
    </contour>
    <contour>
      <point x="879" y="148" type="qcurve" smooth="yes"/>
      <point x="445" y="148"/>
      <point x="60" y="346"/>
      <point x="60" y="519" type="qcurve"/>
      <point x="60" y="703"/>
      <point x="499" y="925"/>
      <point x="879" y="925" type="qcurve" smooth="yes"/>
      <point x="1356" y="925"/>
      <point x="1699" y="723"/>
      <point x="1699" y="549" type="qcurve"/>
      <point x="1699" y="367"/>
      <point x="1291" y="148"/>
    </contour>
    <contour>
      <point x="879" y="260" type="qcurve" smooth="yes"/>
      <point x="1255" y="260"/>
      <point x="1516" y="414"/>
      <point x="1516" y="549" type="qcurve" smooth="yes"/>
      <point x="1516" y="677"/>
      <point x="1250" y="805"/>
      <point x="878" y="805" type="qcurve" smooth="yes"/>
      <point x="524" y="805"/>
      <point x="243" y="653"/>
      <point x="243" y="519" type="qcurve" smooth="yes"/>
      <point x="243" y="390"/>
      <point x="525" y="260"/>
    </contour>
  </outline>
</glyph>
<glyph name="Psi" format="2">
  <advance width="1864"/>
  <unicode hex="03A8"/>
  <outline>
    <contour>
      <point x="624" y="0" type="line"/>
      <point x="624" y="100" type="line"/>
      <point x="842" y="135" type="line"/>
      <point x="843" y="382" type="line"/>
      <point x="848" y="382" type="line"/>
      <point x="848" y="586" type="line"/>
      <point x="845" y="934" type="line"/>
      <point x="664" y="968" type="line"/>
      <point x="664" y="1082" type="line"/>
      <point x="1200" y="1082" type="line"/>
      <point x="1200" y="968" type="line"/>
      <point x="1019" y="934" type="line"/>
      <point x="1016" y="586" type="line"/>
      <point x="1016" y="382" type="line"/>
      <point x="1021" y="382" type="line"/>
      <point x="1022" y="135" type="line"/>
      <point x="1240" y="100" type="line"/>
      <point x="1240" y="0" type="line"/>
    </contour>
    <contour>
      <point x="932" y="324" type="qcurve"/>
      <point x="533" y="324"/>
      <point x="293" y="514"/>
      <point x="262" y="727" type="qcurve" smooth="yes"/>
      <point x="232" y="934" type="line"/>
      <point x="64" y="968" type="line"/>
      <point x="64" y="1082" type="line"/>
      <point x="367" y="1082" type="line"/>
      <point x="400" y="1059" type="line"/>
      <point x="440" y="732" type="line" smooth="yes"/>
      <point x="464" y="537"/>
      <point x="679" y="439"/>
      <point x="932" y="439" type="qcurve"/>
      <point x="1184" y="439"/>
      <point x="1400" y="537"/>
      <point x="1424" y="732" type="qcurve" smooth="yes"/>
      <point x="1464" y="1059" type="line"/>
      <point x="1497" y="1082" type="line"/>
      <point x="1800" y="1082" type="line"/>
      <point x="1800" y="968" type="line"/>
      <point x="1632" y="934" type="line"/>
      <point x="1602" y="727" type="line" smooth="yes"/>
      <point x="1571" y="513"/>
      <point x="1330" y="324"/>
    </contour>
  </outline>
</glyph>
<glyph name="Omega" format="2">
  <advance width="1612"/>
  <unicode hex="03A9"/>
  <anchor x="133.0" y="1082" name="tonos"/>
  <outline>
    <contour>
      <point x="40" y="0" type="line"/>
      <point x="0" y="378" type="line"/>
      <point x="110" y="378" type="line"/>
      <point x="186" y="108" type="line"/>
      <point x="504" y="108" type="line"/>
      <point x="517" y="186" type="line"/>
      <point x="321" y="233"/>
      <point x="85" y="469"/>
      <point x="85" y="640" type="qcurve"/>
      <point x="85" y="851"/>
      <point x="478" y="1103"/>
      <point x="806" y="1103" type="qcurve"/>
      <point x="1131" y="1103"/>
      <point x="1527" y="853"/>
      <point x="1527" y="639" type="qcurve"/>
      <point x="1527" y="469"/>
      <point x="1289" y="233"/>
      <point x="1095" y="186" type="qcurve"/>
      <point x="1108" y="108" type="line"/>
      <point x="1426" y="108" type="line"/>
      <point x="1502" y="378" type="line"/>
      <point x="1612" y="378" type="line"/>
      <point x="1572" y="0" type="line"/>
      <point x="972" y="0" type="line"/>
      <point x="942" y="280" type="line"/>
      <point x="1141" y="320"/>
      <point x="1336" y="494"/>
      <point x="1336" y="647" type="qcurve"/>
      <point x="1336" y="809"/>
      <point x="1047" y="962"/>
      <point x="806" y="962" type="qcurve"/>
      <point x="565" y="962"/>
      <point x="276" y="808"/>
      <point x="276" y="647" type="qcurve"/>
      <point x="276" y="494"/>
      <point x="471" y="320"/>
      <point x="670" y="280" type="qcurve"/>
      <point x="640" y="0" type="line"/>
    </contour>
  </outline>
</glyph>
<glyph name="Dje" format="2">
  <advance width="1630"/>
  <unicode hex="0402"/>
  <guideline x="568" y="625" angle="90" identifier="YDADns81zF"/>
  <outline>
    <contour>
      <point x="1051" y="501" type="qcurve" smooth="yes"/>
      <point x="906" y="501"/>
      <point x="724" y="476"/>
      <point x="624" y="455" type="qcurve"/>
      <point x="624" y="576" type="line"/>
      <point x="725" y="602"/>
      <point x="918" y="636"/>
      <point x="1059" y="636" type="qcurve" smooth="yes"/>
      <point x="1310" y="636"/>
      <point x="1570" y="460"/>
      <point x="1570" y="316" type="qcurve" smooth="yes"/>
      <point x="1570" y="178"/>
      <point x="1357" y="0"/>
      <point x="1165" y="0" type="qcurve"/>
      <point x="1165" y="100" type="line"/>
      <point x="1269" y="104"/>
      <point x="1377" y="211"/>
      <point x="1377" y="294" type="qcurve" smooth="yes"/>
      <point x="1377" y="391"/>
      <point x="1202" y="501"/>
    </contour>
    <contour>
      <point x="40" y="634" type="line"/>
      <point x="40" y="1082" type="line"/>
      <point x="1248" y="1082" type="line"/>
      <point x="1248" y="674" type="line"/>
      <point x="1138" y="674" type="line"/>
      <point x="1103" y="964" type="line"/>
      <point x="733" y="964" type="line"/>
      <point x="714" y="944" type="line"/>
      <point x="712" y="544" type="line"/>
      <point x="714" y="136" type="line"/>
      <point x="931" y="100" type="line"/>
      <point x="931" y="0" type="line"/>
      <point x="315" y="0" type="line"/>
      <point x="315" y="100" type="line"/>
      <point x="534" y="136" type="line"/>
      <point x="536" y="544" type="line"/>
      <point x="534" y="944" type="line"/>
      <point x="525" y="964" type="line"/>
      <point x="185" y="964" type="line"/>
      <point x="150" y="634" type="line"/>
    </contour>
  </outline>
</glyph>
<glyph name="Ieukran" format="2">
  <advance width="1480"/>
  <unicode hex="0404"/>
  <guideline x="211" y="787" angle="90" identifier="mFTeE97JTj"/>
  <outline>
    <contour>
      <point x="80" y="503" type="qcurve" smooth="yes"/>
      <point x="80" y="754"/>
      <point x="487" y="1101"/>
      <point x="834" y="1101" type="qcurve" smooth="yes"/>
      <point x="964" y="1101"/>
      <point x="1161" y="1039"/>
      <point x="1215" y="1003" type="qcurve"/>
      <point x="1247" y="1087" type="line"/>
      <point x="1341" y="1087" type="line"/>
      <point x="1341" y="632" type="line"/>
      <point x="1227" y="632" type="line"/>
      <point x="1195" y="761" type="line" smooth="yes"/>
      <point x="1166" y="877"/>
      <point x="996" y="973"/>
      <point x="868" y="973" type="qcurve" smooth="yes"/>
      <point x="595" y="973"/>
      <point x="269" y="749"/>
      <point x="271" y="532" type="qcurve" smooth="yes"/>
      <point x="273" y="333"/>
      <point x="586" y="115"/>
      <point x="847" y="115" type="qcurve" smooth="yes"/>
      <point x="1040" y="115"/>
      <point x="1278" y="203"/>
      <point x="1344" y="271" type="qcurve"/>
      <point x="1440" y="171" type="line"/>
      <point x="1336" y="72"/>
      <point x="1027" y="-30"/>
      <point x="852" y="-30" type="qcurve" smooth="yes"/>
      <point x="493" y="-30"/>
      <point x="80" y="263"/>
    </contour>
    <contour>
      <point x="176" y="500" type="line"/>
      <point x="176" y="596" type="line"/>
      <point x="852" y="606" type="line"/>
      <point x="887" y="766" type="line"/>
      <point x="997" y="766" type="line"/>
      <point x="997" y="330" type="line"/>
      <point x="887" y="330" type="line"/>
      <point x="852" y="490" type="line"/>
    </contour>
  </outline>
</glyph>
<glyph name="Lje" format="2">
  <advance width="2058"/>
  <unicode hex="0409"/>
  <outline>
    <contour>
      <point x="1813" y="341" type="qcurve" smooth="yes"/>
      <point x="1813" y="453"/>
      <point x="1623" y="568"/>
      <point x="1463" y="568" type="qcurve" smooth="yes"/>
      <point x="1249" y="568" type="line"/>
      <point x="1240" y="554" type="line"/>
      <point x="1241" y="130" type="line"/>
      <point x="1275" y="108" type="line"/>
      <point x="1461" y="108" type="line" smooth="yes"/>
      <point x="1632" y="108"/>
      <point x="1813" y="233"/>
    </contour>
    <contour>
      <point x="1240" y="934" type="line"/>
      <point x="1239" y="695" type="line"/>
      <point x="1248" y="681" type="line"/>
      <point x="1519" y="681" type="line" smooth="yes"/>
      <point x="1758" y="681"/>
      <point x="2008" y="518"/>
      <point x="2008" y="358" type="qcurve" smooth="yes"/>
      <point x="2008" y="201"/>
      <point x="1743" y="0"/>
      <point x="1503" y="0" type="qcurve" smooth="yes"/>
      <point x="852" y="0" type="line"/>
      <point x="852" y="100" type="line"/>
      <point x="1060" y="135" type="line"/>
      <point x="1062" y="533" type="line"/>
      <point x="1060" y="936" type="line"/>
      <point x="1020" y="964" type="line"/>
      <point x="630" y="964" type="line"/>
      <point x="590" y="936" type="line"/>
      <point x="538" y="541" type="line" smooth="yes"/>
      <point x="495" y="218"/>
      <point x="337" y="-17"/>
      <point x="139" y="-17" type="qcurve" smooth="yes"/>
      <point x="115" y="-17"/>
      <point x="79" y="-15"/>
      <point x="50" y="-10" type="qcurve"/>
      <point x="50" y="178" type="line"/>
      <point x="74" y="170"/>
      <point x="114" y="165"/>
      <point x="135" y="165" type="qcurve" smooth="yes"/>
      <point x="276" y="165"/>
      <point x="378" y="360"/>
      <point x="402" y="541" type="qcurve" smooth="yes"/>
      <point x="454" y="934" type="line"/>
      <point x="246" y="968" type="line"/>
      <point x="246" y="1082" type="line"/>
      <point x="1448" y="1082" type="line"/>
      <point x="1448" y="968" type="line"/>
    </contour>
  </outline>
</glyph>
<glyph name="Nje" format="2">
  <advance width="2188"/>
  <unicode hex="040A"/>
  <outline>
    <contour>
      <point x="82" y="0" type="line"/>
      <point x="82" y="100" type="line"/>
      <point x="290" y="135" type="line"/>
      <point x="292" y="543" type="line"/>
      <point x="290" y="934" type="line"/>
      <point x="82" y="968" type="line"/>
      <point x="82" y="1082" type="line"/>
      <point x="678" y="1082" type="line"/>
      <point x="678" y="968" type="line"/>
      <point x="470" y="934" type="line"/>
      <point x="468" y="543" type="line"/>
      <point x="470" y="135" type="line"/>
      <point x="678" y="100" type="line"/>
      <point x="678" y="0" type="line"/>
    </contour>
    <contour>
      <point x="380" y="531" type="line"/>
      <point x="380" y="651" type="line"/>
      <point x="840" y="645" type="line"/>
      <point x="1280" y="651" type="line"/>
      <point x="1280" y="531" type="line"/>
      <point x="840" y="531" type="line"/>
    </contour>
    <contour>
      <point x="1943" y="328" type="qcurve" smooth="yes"/>
      <point x="1943" y="435"/>
      <point x="1753" y="540"/>
      <point x="1593" y="540" type="qcurve" smooth="yes"/>
      <point x="1379" y="540" type="line"/>
      <point x="1370" y="522" type="line"/>
      <point x="1370" y="129" type="line"/>
      <point x="1404" y="108" type="line"/>
      <point x="1591" y="108" type="line" smooth="yes"/>
      <point x="1762" y="108"/>
      <point x="1943" y="223"/>
    </contour>
    <contour>
      <point x="982" y="0" type="line"/>
      <point x="982" y="100" type="line"/>
      <point x="1190" y="135" type="line"/>
      <point x="1192" y="530" type="line"/>
      <point x="1190" y="934" type="line"/>
      <point x="982" y="968" type="line"/>
      <point x="982" y="1082" type="line"/>
      <point x="1578" y="1082" type="line"/>
      <point x="1578" y="968" type="line"/>
      <point x="1370" y="934" type="line"/>
      <point x="1369" y="667" type="line"/>
      <point x="1378" y="654" type="line"/>
      <point x="1649" y="654" type="line" smooth="yes"/>
      <point x="1888" y="654"/>
      <point x="2138" y="501"/>
      <point x="2138" y="344" type="qcurve" smooth="yes"/>
      <point x="2138" y="191"/>
      <point x="1873" y="0"/>
      <point x="1633" y="0" type="qcurve" smooth="yes"/>
    </contour>
  </outline>
</glyph>
<glyph name="Tshe" format="2">
  <advance width="1806"/>
  <unicode hex="040B"/>
  <outline>
    <contour>
      <point x="1736" y="100" type="line"/>
      <point x="1736" y="0" type="line"/>
      <point x="1347" y="0" type="line"/>
      <point x="1348" y="241" type="line" smooth="yes"/>
      <point x="1349" y="373"/>
      <point x="1189" y="501"/>
      <point x="1046" y="501" type="qcurve" smooth="yes"/>
      <point x="903" y="501"/>
      <point x="723" y="471"/>
      <point x="624" y="447" type="qcurve"/>
      <point x="624" y="577" type="line"/>
      <point x="724" y="602"/>
      <point x="915" y="636"/>
      <point x="1054" y="636" type="qcurve" smooth="yes"/>
      <point x="1283" y="636"/>
      <point x="1528" y="446"/>
      <point x="1528" y="236" type="qcurve" smooth="yes"/>
      <point x="1528" y="135" type="line"/>
    </contour>
    <contour>
      <point x="40" y="634" type="line"/>
      <point x="40" y="1082" type="line"/>
      <point x="1248" y="1082" type="line"/>
      <point x="1248" y="674" type="line"/>
      <point x="1138" y="674" type="line"/>
      <point x="1103" y="964" type="line"/>
      <point x="733" y="964" type="line"/>
      <point x="714" y="944" type="line"/>
      <point x="712" y="544" type="line"/>
      <point x="714" y="136" type="line"/>
      <point x="933" y="100" type="line"/>
      <point x="933" y="0" type="line"/>
      <point x="315" y="0" type="line"/>
      <point x="315" y="100" type="line"/>
      <point x="534" y="136" type="line"/>
      <point x="536" y="544" type="line"/>
      <point x="534" y="944" type="line"/>
      <point x="525" y="964" type="line"/>
      <point x="185" y="964" type="line"/>
      <point x="150" y="634" type="line"/>
    </contour>
  </outline>
</glyph>
<glyph name="Be" format="2">
  <advance width="1288"/>
  <unicode hex="0411"/>
  <outline>
    <contour>
      <point x="1023" y="327" type="qcurve" smooth="yes"/>
      <point x="1023" y="439"/>
      <point x="833" y="539"/>
      <point x="673" y="539" type="qcurve" smooth="yes"/>
      <point x="478" y="539" type="line"/>
      <point x="469" y="525" type="line"/>
      <point x="471" y="130" type="line"/>
      <point x="505" y="108" type="line"/>
      <point x="671" y="108" type="line" smooth="yes"/>
      <point x="842" y="108"/>
      <point x="1023" y="220"/>
    </contour>
    <contour>
      <point x="82" y="0" type="line"/>
      <point x="82" y="102" type="line"/>
      <point x="290" y="127" type="line"/>
      <point x="292" y="531" type="line"/>
      <point x="290" y="934" type="line"/>
      <point x="82" y="968" type="line"/>
      <point x="82" y="1082" type="line"/>
      <point x="1096" y="1082" type="line"/>
      <point x="1096" y="724" type="line"/>
      <point x="986" y="724" type="line"/>
      <point x="951" y="964" type="line"/>
      <point x="500" y="964" type="line"/>
      <point x="470" y="944" type="line"/>
      <point x="468" y="666" type="line"/>
      <point x="477" y="652" type="line"/>
      <point x="729" y="652" type="line" smooth="yes"/>
      <point x="968" y="652"/>
      <point x="1218" y="504"/>
      <point x="1218" y="343" type="qcurve" smooth="yes"/>
      <point x="1218" y="187"/>
      <point x="953" y="0"/>
      <point x="713" y="0" type="qcurve" smooth="yes"/>
    </contour>
  </outline>
</glyph>
<glyph name="De" format="2">
  <advance width="1630"/>
  <unicode hex="0414"/>
  <outline>
    <contour>
      <point x="1436" y="-338" type="line"/>
      <point x="1367" y="0" type="line"/>
      <point x="241" y="0" type="line"/>
      <point x="172" y="-338" type="line"/>
      <point x="50" y="-338" type="line"/>
      <point x="60" y="108" type="line"/>
      <point x="1548" y="108" type="line"/>
      <point x="1558" y="-338" type="line"/>
    </contour>
    <contour>
      <point x="387" y="543" type="qcurve" smooth="yes"/>
      <point x="438" y="934" type="line"/>
      <point x="230" y="968" type="line"/>
      <point x="230" y="1082" type="line"/>
      <point x="1548" y="1082" type="line"/>
      <point x="1548" y="968" type="line"/>
      <point x="1340" y="934" type="line"/>
      <point x="1338" y="554" type="line"/>
      <point x="1340" y="50" type="line"/>
      <point x="1160" y="50" type="line"/>
      <point x="1162" y="554" type="line"/>
      <point x="1160" y="936" type="line"/>
      <point x="1120" y="964" type="line"/>
      <point x="614" y="964" type="line"/>
      <point x="574" y="936" type="line"/>
      <point x="522" y="542" type="line" smooth="yes"/>
      <point x="497" y="350"/>
      <point x="430" y="141"/>
      <point x="373" y="56" type="qcurve"/>
      <point x="216" y="56" type="line"/>
      <point x="287" y="143"/>
      <point x="362" y="353"/>
    </contour>
  </outline>
</glyph>
<glyph name="Zhe" format="2">
  <advance width="2082"/>
  <unicode hex="0416"/>
  <guideline x="480" y="796" angle="90" identifier="vQLQteAbfW"/>
  <anchor x="1041" y="0" name="bottom"/>
  <anchor x="1041.0" y="1082" name="top"/>
  <anchor x="2117" y="100" name="cy_descender"/>
  <outline>
    <contour>
      <point x="743" y="0" type="line"/>
      <point x="743" y="100" type="line"/>
      <point x="951" y="135" type="line"/>
      <point x="953" y="544" type="line"/>
      <point x="951" y="934" type="line"/>
      <point x="753" y="968" type="line"/>
      <point x="753" y="1082" type="line"/>
      <point x="1329" y="1082" type="line"/>
      <point x="1329" y="968" type="line"/>
      <point x="1131" y="934" type="line"/>
      <point x="1129" y="544" type="line"/>
      <point x="1131" y="135" type="line"/>
      <point x="1339" y="100" type="line"/>
      <point x="1339" y="0" type="line"/>
    </contour>
    <contour>
      <point x="1041" y="506" type="line"/>
      <point x="1041" y="638" type="line"/>
      <point x="1337" y="634" type="line"/>
      <point x="1682" y="920" type="line"/>
      <point x="1535" y="968" type="line"/>
      <point x="1535" y="1082" type="line"/>
      <point x="2031" y="1082" type="line"/>
      <point x="2031" y="968" type="line"/>
      <point x="1853" y="920" type="line"/>
      <point x="1393" y="535" type="line"/>
      <point x="1351" y="506" type="line"/>
    </contour>
    <contour>
      <point x="1297" y="534" type="line"/>
      <point x="1411" y="654" type="line"/>
      <point x="1960" y="135" type="line"/>
      <point x="2117" y="100" type="line"/>
      <point x="2117" y="0" type="line"/>
      <point x="1584" y="0" type="line"/>
      <point x="1584" y="100" type="line"/>
      <point x="1732" y="135" type="line"/>
    </contour>
    <contour>
      <point x="1041" y="506" type="line"/>
      <point x="731" y="506" type="line"/>
      <point x="682" y="535" type="line"/>
      <point x="222" y="920" type="line"/>
      <point x="44" y="968" type="line"/>
      <point x="44" y="1082" type="line"/>
      <point x="547" y="1082" type="line"/>
      <point x="547" y="968" type="line"/>
      <point x="400" y="920" type="line"/>
      <point x="745" y="634" type="line"/>
      <point x="1041" y="638" type="line"/>
    </contour>
    <contour>
      <point x="782" y="534" type="line"/>
      <point x="350" y="135" type="line"/>
      <point x="498" y="100" type="line"/>
      <point x="498" y="0" type="line"/>
      <point x="-35" y="0" type="line"/>
      <point x="-35" y="100" type="line"/>
      <point x="125" y="135" type="line"/>
      <point x="671" y="654" type="line"/>
    </contour>
  </outline>
</glyph>
<glyph name="Ze" format="2">
  <advance width="1292"/>
  <unicode hex="0417"/>
  <anchor x="677.0" y="0" name="bottom"/>
  <outline>
    <contour>
      <point x="673" y="97" type="qcurve" smooth="yes"/>
      <point x="851" y="97"/>
      <point x="1031" y="198"/>
      <point x="1031" y="311" type="qcurve" smooth="yes"/>
      <point x="1031" y="393"/>
      <point x="891" y="498"/>
      <point x="692" y="498" type="qcurve" smooth="yes"/>
      <point x="522" y="498" type="line"/>
      <point x="522" y="627" type="line"/>
      <point x="688" y="627" type="line" smooth="yes"/>
      <point x="825" y="627"/>
      <point x="965" y="722"/>
      <point x="965" y="812" type="qcurve" smooth="yes"/>
      <point x="965" y="888"/>
      <point x="834" y="973"/>
      <point x="690" y="973" type="qcurve" smooth="yes"/>
      <point x="559" y="973"/>
      <point x="388" y="873"/>
      <point x="360" y="761" type="qcurve" smooth="yes"/>
      <point x="328" y="632" type="line"/>
      <point x="214" y="632" type="line"/>
      <point x="214" y="1081" type="line"/>
      <point x="308" y="1081" type="line"/>
      <point x="340" y="1003" type="line"/>
      <point x="399" y="1041"/>
      <point x="588" y="1101"/>
      <point x="709" y="1101" type="qcurve" smooth="yes"/>
      <point x="927" y="1101"/>
      <point x="1145" y="955"/>
      <point x="1145" y="836" type="qcurve" smooth="yes"/>
      <point x="1145" y="740"/>
      <point x="1010" y="597"/>
      <point x="895" y="578" type="qcurve"/>
      <point x="895" y="571" type="line"/>
      <point x="1029" y="554"/>
      <point x="1217" y="422"/>
      <point x="1217" y="304" type="qcurve" smooth="yes"/>
      <point x="1217" y="160"/>
      <point x="937" y="-31"/>
      <point x="686" y="-31" type="qcurve" smooth="yes"/>
      <point x="556" y="-31"/>
      <point x="359" y="32"/>
      <point x="305" y="67" type="qcurve"/>
      <point x="273" y="-11" type="line"/>
      <point x="179" y="-11" type="line"/>
      <point x="179" y="448" type="line"/>
      <point x="293" y="448" type="line"/>
      <point x="325" y="309" type="line" smooth="yes"/>
      <point x="350" y="199"/>
      <point x="526" y="97"/>
    </contour>
  </outline>
</glyph>
<glyph name="Icyr" format="2">
  <advance width="1760"/>
  <unicode hex="0418"/>
  <guideline x="739" y="930" angle="90.0" identifier="jpSOnFR6u4"/>
  <guideline x="880" y="783" angle="90.0" identifier="3fHus3tMSg"/>
  <guideline x="953" y="742" angle="0" identifier="rmoGi5h6UR"/>
  <anchor x="880" y="0" name="bottom"/>
  <anchor x="880.0" y="1082" name="top"/>
  <outline>
    <contour>
      <point x="1082" y="0" type="line"/>
      <point x="1082" y="100" type="line"/>
      <point x="1290" y="135" type="line"/>
      <point x="1292" y="544" type="line"/>
      <point x="1290" y="934" type="line"/>
      <point x="1082" y="968" type="line"/>
      <point x="1082" y="1082" type="line"/>
      <point x="1678" y="1082" type="line"/>
      <point x="1678" y="968" type="line"/>
      <point x="1470" y="934" type="line"/>
      <point x="1468" y="544" type="line"/>
      <point x="1470" y="135" type="line"/>
      <point x="1678" y="100" type="line"/>
      <point x="1678" y="0" type="line"/>
    </contour>
    <contour>
      <point x="82" y="0" type="line"/>
      <point x="82" y="100" type="line"/>
      <point x="290" y="135" type="line"/>
      <point x="292" y="544" type="line"/>
      <point x="290" y="934" type="line"/>
      <point x="82" y="968" type="line"/>
      <point x="82" y="1082" type="line"/>
      <point x="678" y="1082" type="line"/>
      <point x="678" y="968" type="line"/>
      <point x="470" y="934" type="line"/>
      <point x="468" y="544" type="line"/>
      <point x="470" y="135" type="line"/>
      <point x="678" y="100" type="line"/>
      <point x="678" y="0" type="line"/>
    </contour>
    <contour>
      <point x="383" y="112" type="line"/>
      <point x="383" y="261" type="line"/>
      <point x="850" y="584" type="line"/>
      <point x="1389" y="967" type="line"/>
      <point x="1389" y="818" type="line"/>
      <point x="913" y="488" type="line"/>
    </contour>
  </outline>
</glyph>
<glyph name="Ka" format="2">
  <advance width="1441"/>
  <unicode hex="041A"/>
  <guideline x="480" y="796" angle="90" identifier="LxfLwWU0sJ"/>
  <anchor x="812.0" y="0" name="bottom"/>
  <anchor x="770.0" y="1082" name="top"/>
  <anchor x="1476" y="100" name="cy_descender"/>
  <outline>
    <contour>
      <point x="82" y="0" type="line"/>
      <point x="82" y="100" type="line"/>
      <point x="290" y="135" type="line"/>
      <point x="292" y="544" type="line"/>
      <point x="290" y="934" type="line"/>
      <point x="82" y="968" type="line"/>
      <point x="82" y="1082" type="line"/>
      <point x="668" y="1082" type="line"/>
      <point x="668" y="968" type="line"/>
      <point x="470" y="934" type="line"/>
      <point x="468" y="544" type="line"/>
      <point x="470" y="135" type="line"/>
      <point x="678" y="100" type="line"/>
      <point x="678" y="0" type="line"/>
    </contour>
    <contour>
      <point x="380" y="506" type="line"/>
      <point x="380" y="638" type="line"/>
      <point x="682" y="634" type="line"/>
      <point x="1041" y="920" type="line"/>
      <point x="894" y="968" type="line"/>
      <point x="894" y="1082" type="line"/>
      <point x="1390" y="1082" type="line"/>
      <point x="1390" y="968" type="line"/>
      <point x="1212" y="920" type="line"/>
      <point x="732" y="535" type="line"/>
      <point x="690" y="506" type="line"/>
    </contour>
    <contour>
      <point x="635" y="537" type="line"/>
      <point x="779" y="623" type="line"/>
      <point x="1319" y="135" type="line"/>
      <point x="1476" y="100" type="line"/>
      <point x="1476" y="0" type="line"/>
      <point x="943" y="0" type="line"/>
      <point x="943" y="100" type="line"/>
      <point x="1081" y="135" type="line"/>
    </contour>
  </outline>
</glyph>
<glyph name="El" format="2">
  <advance width="1640"/>
  <unicode hex="041B"/>
  <outline>
    <contour>
      <point x="402" y="542" type="qcurve" smooth="yes"/>
      <point x="454" y="934" type="line"/>
      <point x="246" y="968" type="line"/>
      <point x="246" y="1082" type="line"/>
      <point x="1558" y="1082" type="line"/>
      <point x="1558" y="968" type="line"/>
      <point x="1350" y="934" type="line"/>
      <point x="1348" y="542" type="line"/>
      <point x="1350" y="135" type="line"/>
      <point x="1558" y="100" type="line"/>
      <point x="1558" y="0" type="line"/>
      <point x="962" y="0" type="line"/>
      <point x="962" y="100" type="line"/>
      <point x="1170" y="135" type="line"/>
      <point x="1172" y="542" type="line"/>
      <point x="1170" y="936" type="line"/>
      <point x="1130" y="964" type="line"/>
      <point x="629" y="964" type="line"/>
      <point x="589" y="936" type="line"/>
      <point x="537" y="542" type="line" smooth="yes"/>
      <point x="496" y="233"/>
      <point x="340" y="-17"/>
      <point x="139" y="-17" type="qcurve" smooth="yes"/>
      <point x="115" y="-17"/>
      <point x="79" y="-10"/>
      <point x="50" y="0" type="qcurve"/>
      <point x="50" y="178" type="line"/>
      <point x="74" y="170"/>
      <point x="114" y="165"/>
      <point x="135" y="165" type="qcurve" smooth="yes"/>
      <point x="276" y="165"/>
      <point x="378" y="361"/>
    </contour>
  </outline>
</glyph>
<glyph name="Ucyr" format="2">
  <advance width="1366"/>
  <unicode hex="0423"/>
  <anchor x="683" y="0" name="bottom"/>
  <anchor x="683" y="1082" name="top"/>
  <outline>
    <contour>
      <point x="581" y="300" type="line"/>
      <point x="545" y="251"/>
      <point x="506" y="222" type="qcurve" smooth="yes"/>
      <point x="435" y="169"/>
      <point x="321" y="170" type="qcurve"/>
      <point x="284" y="170"/>
      <point x="244" y="175"/>
      <point x="220" y="183" type="qcurve"/>
      <point x="220" y="0" type="line"/>
      <point x="244" y="-8"/>
      <point x="289" y="-17"/>
      <point x="322" y="-17" type="qcurve" smooth="yes"/>
      <point x="486" y="-17"/>
      <point x="687" y="139"/>
      <point x="782" y="289" type="qcurve"/>
      <point x="1040" y="668" type="line"/>
      <point x="1228" y="940" type="line"/>
      <point x="1396" y="968" type="line"/>
      <point x="1396" y="1082" type="line"/>
      <point x="887" y="1082" type="line"/>
      <point x="887" y="967" type="line"/>
      <point x="1074" y="939" type="line"/>
      <point x="917" y="698" type="line"/>
      <point x="774" y="485" type="line"/>
      <point x="713" y="388" type="line"/>
      <point x="703" y="388" type="line"/>
      <point x="642" y="484" type="line"/>
      <point x="501" y="690" type="line"/>
      <point x="340" y="932" type="line"/>
      <point x="497" y="967" type="line"/>
      <point x="497" y="1082" type="line"/>
      <point x="-30" y="1082" type="line"/>
      <point x="-30" y="967" type="line"/>
      <point x="132" y="941" type="line"/>
      <point x="346" y="638" type="line"/>
      <point x="581" y="300" type="line"/>
    </contour>
  </outline>
</glyph>
<glyph name="Ef" format="2">
  <advance width="1719"/>
  <unicode hex="0424"/>
  <guideline x="-220" y="1431" angle="0" identifier="X2KiO1OAUv"/>
  <outline>
    <contour>
      <point x="859" y="148" type="line"/>
      <point x="424" y="145"/>
      <point x="40" y="346"/>
      <point x="40" y="511" type="qcurve" smooth="yes"/>
      <point x="40" y="703"/>
      <point x="479" y="925"/>
      <point x="859" y="925" type="qcurve"/>
      <point x="859" y="805" type="line"/>
      <point x="505" y="805"/>
      <point x="223" y="653"/>
      <point x="223" y="519" type="qcurve" smooth="yes"/>
      <point x="223" y="391"/>
      <point x="505" y="260"/>
      <point x="859" y="260" type="qcurve"/>
    </contour>
    <contour>
      <point x="596" y="-24" type="line"/>
      <point x="596" y="85" type="line"/>
      <point x="774" y="119" type="line"/>
      <point x="776" y="181" type="line"/>
      <point x="785" y="181" type="line"/>
      <point x="787" y="530" type="line"/>
      <point x="785" y="891" type="line"/>
      <point x="776" y="891" type="line"/>
      <point x="774" y="949" type="line"/>
      <point x="596" y="983" type="line"/>
      <point x="596" y="1092" type="line"/>
      <point x="1122" y="1092" type="line"/>
      <point x="1122" y="983" type="line"/>
      <point x="944" y="949" type="line"/>
      <point x="942" y="891" type="line"/>
      <point x="933" y="891" type="line"/>
      <point x="931" y="530" type="line"/>
      <point x="933" y="182" type="line"/>
      <point x="942" y="181" type="line"/>
      <point x="944" y="119" type="line"/>
      <point x="1122" y="85" type="line"/>
      <point x="1122" y="-24" type="line"/>
    </contour>
    <contour>
      <point x="859" y="260" type="line"/>
      <point x="1235" y="260"/>
      <point x="1496" y="414"/>
      <point x="1496" y="549" type="qcurve" smooth="yes"/>
      <point x="1496" y="676"/>
      <point x="1235" y="806"/>
      <point x="859" y="805" type="qcurve"/>
      <point x="859" y="925" type="line"/>
      <point x="1336" y="925"/>
      <point x="1679" y="726"/>
      <point x="1679" y="563" type="qcurve" smooth="yes"/>
      <point x="1679" y="370"/>
      <point x="1275" y="152"/>
      <point x="859" y="148" type="qcurve"/>
    </contour>
  </outline>
</glyph>
<glyph name="Hard" format="2">
  <advance width="1478"/>
  <unicode hex="042A"/>
  <outline>
    <contour>
      <point x="868" y="1082" type="line"/>
      <point x="868" y="967" type="line"/>
      <point x="660" y="933" type="line"/>
      <point x="659" y="695" type="line"/>
      <point x="668" y="681" type="line"/>
      <point x="939" y="681" type="line" smooth="yes"/>
      <point x="1178" y="681"/>
      <point x="1428" y="518"/>
      <point x="1428" y="358" type="qcurve" smooth="yes"/>
      <point x="1428" y="201"/>
      <point x="1163" y="0"/>
      <point x="923" y="0" type="qcurve" smooth="yes"/>
      <point x="272" y="0" type="line"/>
      <point x="272" y="100" type="line"/>
      <point x="480" y="135" type="line"/>
      <point x="482" y="530" type="line"/>
      <point x="480" y="964" type="line"/>
      <point x="185" y="964" type="line"/>
      <point x="150" y="634" type="line"/>
      <point x="40" y="634" type="line"/>
      <point x="40" y="1082" type="line"/>
    </contour>
    <contour>
      <point x="669" y="568" type="line"/>
      <point x="660" y="554" type="line"/>
      <point x="661" y="130" type="line"/>
      <point x="695" y="108" type="line"/>
      <point x="881" y="108" type="line" smooth="yes"/>
      <point x="1052" y="108"/>
      <point x="1233" y="233"/>
      <point x="1233" y="341" type="qcurve" smooth="yes"/>
      <point x="1233" y="453"/>
      <point x="1043" y="568"/>
      <point x="883" y="568" type="qcurve" smooth="yes"/>
    </contour>
  </outline>
</glyph>
<glyph name="Soft" format="2">
  <advance width="1288"/>
  <unicode hex="042C"/>
  <anchor x="1262" y="0" name="Yeru_I"/>
  <outline>
    <contour>
      <point x="479" y="568" type="line"/>
      <point x="470" y="554" type="line"/>
      <point x="471" y="130" type="line"/>
      <point x="505" y="108" type="line"/>
      <point x="691" y="108" type="line" smooth="yes"/>
      <point x="862" y="108"/>
      <point x="1043" y="233"/>
      <point x="1043" y="341" type="qcurve" smooth="yes"/>
      <point x="1043" y="453"/>
      <point x="853" y="568"/>
      <point x="693" y="568" type="qcurve" smooth="yes"/>
    </contour>
    <contour>
      <point x="469" y="695" type="line"/>
      <point x="478" y="681" type="line"/>
      <point x="749" y="681" type="line" smooth="yes"/>
      <point x="988" y="681"/>
      <point x="1238" y="518"/>
      <point x="1238" y="358" type="qcurve" smooth="yes"/>
      <point x="1238" y="201"/>
      <point x="973" y="0"/>
      <point x="733" y="0" type="qcurve" smooth="yes"/>
      <point x="82" y="0" type="line"/>
      <point x="82" y="100" type="line"/>
      <point x="290" y="135" type="line"/>
      <point x="292" y="530" type="line"/>
      <point x="290" y="933" type="line"/>
      <point x="82" y="967" type="line"/>
      <point x="82" y="1081" type="line"/>
      <point x="678" y="1081" type="line"/>
      <point x="678" y="967" type="line"/>
      <point x="470" y="933" type="line"/>
    </contour>
  </outline>
</glyph>
<glyph name="Ecyr" format="2">
  <advance width="1530"/>
  <unicode hex="042D"/>
  <guideline x="1147" y="753" angle="90" identifier="Ovo68woMtl"/>
  <guideline x="211" y="787" angle="90" identifier="BltxzGcBtl"/>
  <anchor x="710.0" y="0" name="bottom"/>
  <anchor x="710.0" y="1082" name="top"/>
  <outline>
    <contour>
      <point x="1355" y="501" type="line"/>
      <point x="674" y="491" type="line"/>
      <point x="639" y="331" type="line"/>
      <point x="529" y="331" type="line"/>
      <point x="529" y="767" type="line"/>
      <point x="639" y="767" type="line"/>
      <point x="674" y="607" type="line"/>
      <point x="1355" y="599" type="line"/>
    </contour>
    <contour>
      <point x="684" y="97" type="qcurve" smooth="yes"/>
      <point x="984" y="97"/>
      <point x="1260" y="325"/>
      <point x="1260" y="537" type="qcurve" smooth="yes"/>
      <point x="1260" y="726"/>
      <point x="971" y="975"/>
      <point x="697" y="975" type="qcurve" smooth="yes"/>
      <point x="552" y="975"/>
      <point x="370" y="878"/>
      <point x="341" y="763" type="qcurve" smooth="yes"/>
      <point x="309" y="634" type="line"/>
      <point x="195" y="634" type="line"/>
      <point x="195" y="1083" type="line"/>
      <point x="289" y="1083" type="line"/>
      <point x="321" y="1005" type="line"/>
      <point x="381" y="1044"/>
      <point x="576" y="1103"/>
      <point x="720" y="1103" type="qcurve" smooth="yes"/>
      <point x="1064" y="1103"/>
      <point x="1450" y="794"/>
      <point x="1450" y="542" type="qcurve" smooth="yes"/>
      <point x="1450" y="301"/>
      <point x="1056" y="-31"/>
      <point x="697" y="-31" type="qcurve" smooth="yes"/>
      <point x="564" y="-31"/>
      <point x="361" y="31"/>
      <point x="306" y="67" type="qcurve"/>
      <point x="274" y="-11" type="line"/>
      <point x="180" y="-11" type="line"/>
      <point x="180" y="448" type="line"/>
      <point x="294" y="448" type="line"/>
      <point x="326" y="309" type="line" smooth="yes"/>
      <point x="351" y="199"/>
      <point x="533" y="97"/>
    </contour>
  </outline>
</glyph>
<glyph name="Ya" format="2">
  <advance width="1438"/>
  <unicode hex="042F"/>
  <anchor x="630.0" y="0" name="bottom"/>
  <anchor x="803.0" y="1082" name="top"/>
  <outline>
    <contour>
      <point x="1356" y="0" type="line"/>
      <point x="1356" y="100" type="line"/>
      <point x="1148" y="136" type="line"/>
      <point x="1146" y="551" type="line"/>
      <point x="1148" y="934" type="line"/>
      <point x="1356" y="968" type="line"/>
      <point x="1356" y="1082" type="line"/>
      <point x="728" y="1082" type="line" smooth="yes"/>
      <point x="478" y="1082"/>
      <point x="220" y="925"/>
      <point x="220" y="777" type="qcurve" smooth="yes"/>
      <point x="220" y="646"/>
      <point x="447" y="477"/>
      <point x="649" y="466" type="qcurve"/>
      <point x="655" y="457" type="line"/>
      <point x="1058" y="467" type="line"/>
      <point x="1058" y="569" type="line"/>
      <point x="767" y="569" type="line" smooth="yes"/>
      <point x="596" y="569"/>
      <point x="415" y="681"/>
      <point x="415" y="777" type="qcurve" smooth="yes"/>
      <point x="415" y="868"/>
      <point x="601" y="964"/>
      <point x="767" y="964" type="qcurve" smooth="yes"/>
      <point x="933" y="964" type="line"/>
      <point x="967" y="942" type="line"/>
      <point x="970" y="559" type="line"/>
      <point x="968" y="132" type="line"/>
      <point x="740" y="100" type="line"/>
      <point x="740" y="0" type="line"/>
    </contour>
    <contour>
      <point x="760" y="505" type="line"/>
      <point x="583" y="526" type="line"/>
      <point x="307" y="227" type="line" smooth="yes"/>
      <point x="213" y="125"/>
      <point x="87" y="101"/>
      <point x="30" y="100" type="qcurve"/>
      <point x="30" y="0" type="line"/>
      <point x="282" y="0" type="line"/>
      <point x="311" y="20" type="line"/>
    </contour>
  </outline>
</glyph>
<glyph name="Gheup" format="2">
  <advance width="1144"/>
  <unicode hex="0490"/>
  <outline>
    <contour>
      <point x="914" y="1082" type="line"/>
      <point x="981" y="1410" type="line"/>
      <point x="1103" y="1410" type="line"/>
      <point x="1093" y="964" type="line"/>
      <point x="500" y="964" type="line"/>
      <point x="470" y="944" type="line"/>
      <point x="468" y="544" type="line"/>
      <point x="470" y="132" type="line"/>
      <point x="698" y="100" type="line"/>
      <point x="698" y="0" type="line"/>
      <point x="82" y="0" type="line"/>
      <point x="82" y="100" type="line"/>
      <point x="290" y="137" type="line"/>
      <point x="292" y="544" type="line"/>
      <point x="290" y="934" type="line"/>
      <point x="82" y="968" type="line"/>
      <point x="82" y="1082" type="line"/>
    </contour>
  </outline>
</glyph>
<glyph name="Kaverticalstrokecyr" format="2">
  <advance width="1711"/>
  <unicode hex="049C"/>
  <guideline x="480" y="796" angle="90" identifier="LxfLwWU0sJ"/>
  <outline>
    <contour>
      <point x="810" y="875" type="line"/>
      <point x="810" y="219" type="line"/>
      <point x="660" y="219" type="line"/>
      <point x="660" y="875" type="line"/>
    </contour>
    <contour>
      <point x="82" y="0" type="line"/>
      <point x="82" y="100" type="line"/>
      <point x="290" y="135" type="line"/>
      <point x="292" y="544" type="line"/>
      <point x="290" y="934" type="line"/>
      <point x="82" y="968" type="line"/>
      <point x="82" y="1082" type="line"/>
      <point x="668" y="1082" type="line"/>
      <point x="668" y="968" type="line"/>
      <point x="470" y="934" type="line"/>
      <point x="468" y="544" type="line"/>
      <point x="470" y="135" type="line"/>
      <point x="678" y="100" type="line"/>
      <point x="678" y="0" type="line"/>
    </contour>
    <contour>
      <point x="735" y="506" type="line"/>
      <point x="735" y="636" type="line"/>
      <point x="906" y="634" type="line"/>
      <point x="1265" y="920" type="line"/>
      <point x="1118" y="968" type="line"/>
      <point x="1118" y="1082" type="line"/>
      <point x="1614" y="1082" type="line"/>
      <point x="1614" y="968" type="line"/>
      <point x="1436" y="920" type="line"/>
      <point x="956" y="535" type="line"/>
      <point x="914" y="506" type="line"/>
    </contour>
    <contour>
      <point x="859" y="537" type="line"/>
      <point x="1003" y="623" type="line"/>
      <point x="1543" y="135" type="line"/>
      <point x="1700" y="100" type="line"/>
      <point x="1700" y="0" type="line"/>
      <point x="1167" y="0" type="line"/>
      <point x="1167" y="100" type="line"/>
      <point x="1305" y="135" type="line"/>
    </contour>
  </outline>
</glyph>
<glyph name="Kabashkircyr" format="2">
  <advance width="1681"/>
  <unicode hex="04A0"/>
  <guideline x="480" y="796" angle="90" identifier="UonMLy8RzJ"/>
  <outline>
    <contour>
      <point x="620" y="506" type="line"/>
      <point x="620" y="638" type="line"/>
      <point x="922" y="634" type="line"/>
      <point x="1281" y="920" type="line"/>
      <point x="1134" y="968" type="line"/>
      <point x="1134" y="1082" type="line"/>
      <point x="1630" y="1082" type="line"/>
      <point x="1630" y="968" type="line"/>
      <point x="1452" y="920" type="line"/>
      <point x="972" y="535" type="line"/>
      <point x="930" y="506" type="line"/>
    </contour>
    <contour>
      <point x="875" y="537" type="line"/>
      <point x="1019" y="623" type="line"/>
      <point x="1559" y="135" type="line"/>
      <point x="1716" y="100" type="line"/>
      <point x="1716" y="0" type="line"/>
      <point x="1183" y="0" type="line"/>
      <point x="1183" y="100" type="line"/>
      <point x="1321" y="135" type="line"/>
    </contour>
    <contour>
      <point x="530" y="964" type="line"/>
      <point x="185" y="964" type="line"/>
      <point x="150" y="634" type="line"/>
      <point x="40" y="634" type="line"/>
      <point x="40" y="1082" type="line"/>
      <point x="908" y="1082" type="line"/>
      <point x="908" y="968" type="line"/>
      <point x="710" y="934" type="line"/>
      <point x="708" y="544" type="line"/>
      <point x="710" y="135" type="line"/>
      <point x="918" y="100" type="line"/>
      <point x="918" y="0" type="line"/>
      <point x="322" y="0" type="line"/>
      <point x="322" y="100" type="line"/>
      <point x="530" y="135" type="line"/>
      <point x="532" y="544" type="line"/>
    </contour>
  </outline>
</glyph>
<glyph name="Cheverticalstroke-cy" format="2">
  <advance width="1678"/>
  <unicode hex="04B8"/>
  <guideline x="1330" y="777" angle="90" identifier="SFQDOVOlnA"/>
  <outline>
    <contour>
      <point x="899" y="943" type="line"/>
      <point x="899" y="87" type="line"/>
      <point x="749" y="87" type="line"/>
      <point x="749" y="943" type="line"/>
    </contour>
    <contour>
      <point x="980" y="0" type="line"/>
      <point x="980" y="100" type="line"/>
      <point x="1208" y="135" type="line"/>
      <point x="1210" y="544" type="line"/>
      <point x="1208" y="934" type="line"/>
      <point x="1000" y="968" type="line"/>
      <point x="1000" y="1082" type="line"/>
      <point x="1596" y="1082" type="line"/>
      <point x="1596" y="968" type="line"/>
      <point x="1388" y="934" type="line"/>
      <point x="1386" y="544" type="line"/>
      <point x="1388" y="135" type="line"/>
      <point x="1596" y="100" type="line"/>
      <point x="1596" y="0" type="line"/>
    </contour>
    <contour>
      <point x="50" y="968" type="line"/>
      <point x="50" y="1082" type="line"/>
      <point x="646" y="1082" type="line"/>
      <point x="646" y="968" type="line"/>
      <point x="439" y="934" type="line"/>
      <point x="438" y="775" type="line" smooth="yes"/>
      <point x="437" y="634"/>
      <point x="642" y="522"/>
      <point x="868" y="522" type="qcurve" smooth="yes"/>
      <point x="988" y="522"/>
      <point x="1190" y="549"/>
      <point x="1298" y="576" type="qcurve"/>
      <point x="1298" y="446" type="line"/>
      <point x="1188" y="417"/>
      <point x="983" y="387"/>
      <point x="826" y="387" type="qcurve" smooth="yes"/>
      <point x="555" y="387"/>
      <point x="258" y="558"/>
      <point x="258" y="780" type="qcurve" smooth="yes"/>
      <point x="258" y="934" type="line"/>
    </contour>
  </outline>
</glyph>
<glyph name="Shha" format="2">
  <advance width="1678"/>
  <unicode hex="04BA"/>
  <outline>
    <contour>
      <point x="678" y="1082" type="line"/>
      <point x="678" y="971" type="line"/>
      <point x="470" y="936" type="line"/>
      <point x="468" y="524" type="line"/>
      <point x="470" y="139" type="line"/>
      <point x="678" y="105" type="line"/>
      <point x="678" y="0" type="line"/>
      <point x="82" y="0" type="line"/>
      <point x="82" y="105" type="line"/>
      <point x="290" y="139" type="line"/>
      <point x="292" y="538" type="line"/>
      <point x="290" y="936" type="line"/>
      <point x="82" y="971" type="line"/>
      <point x="82" y="1082" type="line"/>
    </contour>
    <contour>
      <point x="1628" y="105" type="line"/>
      <point x="1628" y="0" type="line"/>
      <point x="1032" y="0" type="line"/>
      <point x="1032" y="105" type="line"/>
      <point x="1239" y="139" type="line"/>
      <point x="1240" y="307" type="line" smooth="yes"/>
      <point x="1241" y="448"/>
      <point x="1036" y="560"/>
      <point x="810" y="560" type="qcurve" smooth="yes"/>
      <point x="690" y="560"/>
      <point x="488" y="533"/>
      <point x="380" y="507" type="qcurve"/>
      <point x="380" y="635" type="line"/>
      <point x="490" y="664"/>
      <point x="695" y="695"/>
      <point x="852" y="695" type="qcurve" smooth="yes"/>
      <point x="1123" y="695"/>
      <point x="1420" y="523"/>
      <point x="1420" y="302" type="qcurve" smooth="yes"/>
      <point x="1420" y="139" type="line"/>
    </contour>
  </outline>
</glyph>
<glyph name="Schwacyr" format="2">
  <advance width="1524"/>
  <unicode hex="04D8"/>
  <guideline x="212" y="786" angle="90" identifier="UtNSclIhRG"/>
  <guideline x="1248" y="730" angle="90" identifier="hwb5F7EShy"/>
  <guideline x="176" y="804" angle="90" identifier="CC6biuYdY2"/>
  <guideline x="1489" y="880" angle="90" identifier="5SLpVGRhqp"/>
  <outline>
    <contour>
      <point x="85" y="601" type="qcurve"/>
      <point x="774" y="595" type="line"/>
      <point x="1349" y="601" type="line"/>
      <point x="1349" y="469" type="line"/>
      <point x="774" y="469" type="line"/>
      <point x="271" y="469" type="line"/>
      <point x="271" y="469" type="line"/>
      <point x="271" y="337"/>
      <point x="514" y="101"/>
      <point x="744" y="101" type="qcurve" smooth="yes"/>
      <point x="1012" y="101"/>
      <point x="1253" y="327"/>
      <point x="1253" y="536" type="qcurve" smooth="yes"/>
      <point x="1253" y="726"/>
      <point x="966" y="974"/>
      <point x="692" y="974" type="qcurve" smooth="yes"/>
      <point x="547" y="974"/>
      <point x="365" y="877"/>
      <point x="336" y="762" type="qcurve" smooth="yes"/>
      <point x="304" y="633" type="line"/>
      <point x="190" y="633" type="line"/>
      <point x="190" y="1088" type="line"/>
      <point x="284" y="1088" type="line"/>
      <point x="316" y="1004" type="line"/>
      <point x="376" y="1043"/>
      <point x="571" y="1102"/>
      <point x="715" y="1102" type="qcurve" smooth="yes"/>
      <point x="1059" y="1102"/>
      <point x="1444" y="793"/>
      <point x="1444" y="541" type="qcurve" smooth="yes"/>
      <point x="1444" y="301"/>
      <point x="1080" y="-31"/>
      <point x="746" y="-31" type="qcurve" smooth="yes"/>
      <point x="436" y="-31"/>
      <point x="80" y="265"/>
      <point x="80" y="501" type="qcurve" smooth="yes"/>
      <point x="80" y="527"/>
      <point x="81" y="577"/>
    </contour>
  </outline>
</glyph>
<glyph name="Germandbls" format="2">
  <advance width="1463"/>
  <unicode hex="1E9E"/>
  <outline>
    <contour>
      <point x="156" y="338" type="line"/>
      <point x="154" y="650" type="line" smooth="yes"/>
      <point x="152" y="893"/>
      <point x="418" y="1102"/>
      <point x="612" y="1102" type="qcurve"/>
      <point x="723" y="1102"/>
      <point x="872" y="1084"/>
      <point x="959" y="1078" type="qcurve"/>
      <point x="961" y="964" type="line"/>
      <point x="849" y="964"/>
      <point x="714" y="882"/>
      <point x="714" y="814" type="qcurve" smooth="yes"/>
      <point x="714" y="760"/>
      <point x="845" y="690"/>
      <point x="1034" y="637" type="qcurve" smooth="yes"/>
      <point x="1206" y="589"/>
      <point x="1437" y="433"/>
      <point x="1437" y="286" type="qcurve" smooth="yes"/>
      <point x="1437" y="151"/>
      <point x="1204" y="-20"/>
      <point x="1041" y="-20" type="qcurve" smooth="yes"/>
      <point x="912" y="-20"/>
      <point x="716" y="54"/>
      <point x="657" y="113" type="qcurve"/>
      <point x="610" y="0" type="line"/>
      <point x="506" y="0" type="line"/>
      <point x="506" y="484" type="line"/>
      <point x="622" y="484" type="line"/>
      <point x="640" y="379" type="line" smooth="yes"/>
      <point x="665" y="234"/>
      <point x="853" y="102"/>
      <point x="978" y="102" type="qcurve" smooth="yes"/>
      <point x="1114" y="102"/>
      <point x="1255" y="204"/>
      <point x="1255" y="285" type="qcurve" smooth="yes"/>
      <point x="1255" y="359"/>
      <point x="1131" y="440"/>
      <point x="936" y="490" type="qcurve" smooth="yes"/>
      <point x="752" y="537"/>
      <point x="554" y="675"/>
      <point x="554" y="794" type="qcurve" smooth="yes"/>
      <point x="554" y="844"/>
      <point x="603" y="929"/>
      <point x="647" y="960" type="qcurve"/>
      <point x="589" y="960" type="line" smooth="yes"/>
      <point x="460" y="960"/>
      <point x="335" y="813"/>
      <point x="334" y="613" type="qcurve" smooth="yes"/>
      <point x="332" y="338" type="line"/>
      <point x="334" y="-348" type="line"/>
      <point x="542" y="-380" type="line"/>
      <point x="542" y="-480" type="line"/>
      <point x="-24" y="-480" type="line"/>
      <point x="-24" y="-380" type="line"/>
      <point x="154" y="-343" type="line"/>
    </contour>
  </outline>
</glyph>
<glyph name="De.bgr" format="2">
  <advance width="1557"/>
  <outline>
    <contour>
      <point x="1215" y="0" type="line"/>
      <point x="1016" y="385" type="line"/>
      <point x="811" y="774" type="line"/>
      <point x="752" y="889" type="line"/>
      <point x="741" y="889" type="line"/>
      <point x="682" y="773" type="line"/>
      <point x="479" y="379" type="line"/>
      <point x="286" y="0" type="line"/>
      <point x="142" y="0" type="line"/>
      <point x="364" y="422" type="line"/>
      <point x="713" y="1090" type="line"/>
      <point x="835" y="1090" type="line"/>
      <point x="1178" y="442" type="line"/>
      <point x="1414" y="0" type="line"/>
    </contour>
    <contour>
      <point x="1405" y="-338" type="line"/>
      <point x="1336" y="0" type="line"/>
      <point x="221" y="0" type="line"/>
      <point x="152" y="-338" type="line"/>
      <point x="30" y="-338" type="line"/>
      <point x="40" y="108" type="line"/>
      <point x="1517" y="108" type="line"/>
      <point x="1527" y="-338" type="line"/>
    </contour>
  </outline>
</glyph>
